<svg width="26" height="25" viewBox="0 0 26 25" fill="none" xmlns="http://www.w3.org/2000/svg">
<g clip-path="url(#clip0_104_180)">
<path fill-rule="evenodd" clip-rule="evenodd" d="M12.8435 0C9.53835 0.000414307 6.3687 1.31356 4.03162 3.65064C1.69454 5.98772 0.381396 9.15737 0.380981 12.4625C0.380981 17.9656 3.97473 22.6297 8.86692 24.3125C9.47942 24.3891 9.70754 24.0063 9.70754 23.7V21.5594C6.26848 22.325 5.50442 19.8781 5.50442 19.8781C4.96848 18.425 4.12786 18.0422 4.12786 18.0422C2.98098 17.2781 4.20286 17.2781 4.20286 17.2781C5.42629 17.3547 6.11536 18.5781 6.11536 18.5781C7.26223 20.4891 9.02004 19.9531 9.70911 19.6484C9.78411 18.8078 10.1669 18.2734 10.4732 17.9672C7.72004 17.6609 4.81536 16.5906 4.81536 11.7734C4.81536 10.3984 5.27317 9.32656 6.11536 8.40937C6.03723 8.17969 5.57942 6.88125 6.26848 5.19844C6.26848 5.19844 7.33879 4.89219 9.70754 6.49844C10.7013 6.19219 11.7732 6.11563 12.8435 6.11563C13.9138 6.11563 14.9841 6.26875 15.9779 6.49844C18.3482 4.89375 19.4185 5.19844 19.4185 5.19844C20.106 6.88125 19.6466 8.17969 19.57 8.48594C20.4121 9.40325 20.8764 10.6048 20.87 11.85C20.87 16.6672 17.9638 17.6609 15.2138 17.9672C15.6716 18.3484 16.0544 19.1125 16.0544 20.2594V23.7C16.0544 24.0063 16.2825 24.3875 16.895 24.3125C19.3732 23.4762 21.5258 21.8821 23.0486 19.7557C24.5713 17.6292 25.3873 15.078 25.381 12.4625C25.3044 5.58125 19.7247 0 12.8435 0Z" fill="white"/>
</g>
<defs>
<clipPath id="clip0_104_180">
<rect width="25" height="25" fill="white" transform="translate(0.380981)"/>
</clipPath>
</defs>
</svg>
