<svg width="26" height="26" viewBox="0 0 26 26" fill="none" xmlns="http://www.w3.org/2000/svg">
<g clip-path="url(#clip0_109_171)">
<path d="M25.6465 5.25168C25.3688 5.43224 24.9729 5.59891 24.8063 5.7864C24.7438 5.8489 24.709 5.91835 24.7229 5.98779V6.70307L24.5146 7.40446L24.3063 8.0989L24.0771 8.86279L23.6049 10.4253L23.1466 11.9669L22.7993 13.1267C22.7993 13.3072 22.7924 13.4878 22.7785 13.6614C22.7299 14.3281 22.591 14.9669 22.3688 15.5642C22.2368 15.9322 22.0771 16.2864 21.8827 16.6197C21.8132 16.7517 21.7299 16.8836 21.6466 17.0086C21.3688 17.4461 21.0354 17.8489 20.6674 18.203C20.3827 18.4878 20.0702 18.7517 19.7299 18.9739C19.7299 18.9739 19.7299 18.9739 19.7229 18.9739C19.6674 19.0225 19.6049 19.0642 19.5354 19.0989C19.3202 19.2447 19.091 19.3697 18.8549 19.4808C18.6952 19.5642 18.5355 19.6336 18.3688 19.6961C18.3341 19.7169 18.2924 19.7308 18.2577 19.7447C17.8618 19.9322 17.4035 20.0572 16.9452 20.1197C16.9174 20.1266 16.8966 20.1266 16.8688 20.1336C16.591 20.1822 16.3202 20.2239 16.0424 20.2447C15.9174 20.2586 15.7855 20.2655 15.6605 20.2655L15.1674 20.2378L12.7924 20.1128C12.7924 20.1058 12.7855 20.1128 12.7855 20.1128L11.591 20.0503C11.5007 20.0503 11.4035 20.0503 11.3132 20.0433C10.9382 20.0294 10.5771 19.9878 10.216 19.9114C10.2091 19.9114 10.2091 19.9114 10.2091 19.9114C9.54936 19.7864 8.91742 19.5642 8.32714 19.2655C8.00075 19.0989 7.68131 18.9114 7.3827 18.6961C7.2577 18.6058 7.13964 18.5086 7.02159 18.4044C6.68826 18.1267 6.38964 17.828 6.11187 17.5225C6.0702 17.4808 6.03548 17.4392 6.00076 17.3975C5.95909 17.3558 5.91742 17.3072 5.8827 17.2655C5.61881 16.9322 5.39659 16.5919 5.21604 16.2308C5.04937 15.9114 4.91743 15.5711 4.81326 15.1961C4.77159 15.0642 4.73687 14.9392 4.70909 14.8003C4.70215 14.7933 4.6952 14.7794 4.6952 14.7656C4.62576 14.4808 4.56326 14.1822 4.52854 13.8836C4.48687 13.6544 4.46604 13.4253 4.46604 13.1892C4.45215 13.0989 4.45215 13.0017 4.45215 12.9114L5.77854 10.8628L7.07714 8.86279L7.66742 7.95307L8.20214 7.13362L8.3827 6.8489V6.13363C8.39658 5.9739 8.40353 5.80724 8.39658 5.65446C8.38964 5.16835 8.29242 4.69613 8.1327 4.24474C7.97992 3.76558 7.76464 3.31419 7.54242 2.89752C7.27853 2.41836 7.00075 1.9878 6.77159 1.59891C6.43131 1.02947 6.1952 0.564194 6.2577 0.237806C6.7577 0.119751 7.28548 0.057251 7.8202 0.057251H18.9313C21.8341 0.057251 24.334 1.8628 25.3688 4.40446C25.4799 4.6753 25.5771 4.96002 25.6465 5.25168Z" fill="#304FFE"/>
<path d="M25.8759 7.00168V7.18918L24.9175 7.74473L24.3064 8.0989L23.6328 8.48779L22.2856 9.27251L20.9661 10.0364L19.6189 10.8142L19.0842 11.1267C19.0842 11.46 19.0009 11.7656 18.8481 12.0433C18.6328 12.4461 18.2717 12.7794 17.8134 13.0642C17.3481 13.3489 16.7787 13.5781 16.1398 13.7447C16.1398 13.7447 16.1398 13.7378 16.1328 13.7447C13.6606 14.3836 10.2856 14.0919 8.64673 12.8697C8.1884 12.5294 7.86895 12.1128 7.73006 11.6336C7.6884 11.4739 7.66756 11.3003 7.66756 11.1267V6.13363C7.67451 6.02946 7.60506 5.92529 7.48006 5.82113C7.10506 5.52252 6.22312 5.23779 5.23701 4.95307C4.46618 4.7378 3.63979 4.52252 2.94535 4.31419C2.39674 4.14752 1.93146 3.98085 1.65369 3.82113C1.77869 3.57808 1.92452 3.33502 2.0773 3.10586C3.04952 1.68225 4.53562 0.633639 6.25784 0.237806C6.75784 0.119751 7.28562 0.057251 7.82034 0.057251H15.3203C19.0495 0.710027 22.487 2.23086 25.3689 4.40446C25.48 4.6753 25.5772 4.96002 25.6467 5.25168C25.7717 5.71002 25.8481 6.18224 25.8689 6.67529C25.8759 6.77946 25.8759 6.89057 25.8759 7.00168Z" fill="#4928F4"/>
<path d="M25.8758 7.00169V10.0642L25.723 10.5364L25.2022 12.1545L24.6605 13.8211L24.3758 14.71L24.1119 15.5364L23.855 16.3211L23.605 17.0989L23.473 17.5086L23.2994 18.0503C23.2994 18.5781 23.2855 19.0433 23.2508 19.4392C23.2438 19.4808 23.2369 19.5225 23.2369 19.5642C23.1952 19.9322 23.1397 20.2447 23.0494 20.5086C23.0425 20.5503 23.0286 20.5919 23.0147 20.6267C22.8341 21.1267 22.5633 21.4461 22.1605 21.6544C22.0633 21.71 21.9522 21.7517 21.8341 21.7933C21.4661 21.9183 21.0008 21.9808 20.4314 22.0155C20.0147 22.0433 19.5355 22.0503 18.9939 22.0503H18.5147L17.6883 22.0155L17.5425 22.0086L16.0355 21.9461L14.5078 21.8836L9.47304 21.6753L8.16749 21.6197H7.98694C7.44527 21.6128 6.97999 21.578 6.57722 21.5225C5.99389 21.4322 5.5425 21.2794 5.20222 21.0503C4.71611 20.7378 4.43139 20.2794 4.26472 19.6406C4.22306 19.4878 4.18833 19.3281 4.1675 19.1544C4.09806 18.7517 4.06333 18.2864 4.0425 17.7656C4.0425 17.6614 4.0425 17.5572 4.03556 17.4461C4.02861 17.4392 4.03556 17.4392 4.03556 17.4392V17.0364C4.02861 16.835 4.02861 16.6267 4.02861 16.4114L4.06333 15.2933L4.08417 14.4947L4.11194 13.5642V13.4322L4.16056 11.7239L4.20917 10.0156L4.25778 8.41141L4.29944 6.83503L4.31333 6.41836C4.31333 6.20308 3.58417 6.07808 2.77167 5.97392C2.12584 5.89058 1.41751 5.81419 0.993896 5.71697C1.02862 5.55725 1.06334 5.39753 1.10501 5.24475C1.23001 4.74475 1.41751 4.27253 1.65362 3.82114C1.77862 3.57809 1.92445 3.33503 2.07723 3.10587C3.57722 2.44615 5.13972 1.93226 6.77166 1.59893C8.20221 1.30032 9.69527 1.14059 11.2369 1.14059C16.348 1.14059 21.0702 2.86976 24.8063 5.78642C25.1675 6.06419 25.5216 6.3628 25.8688 6.6753C25.8758 6.77947 25.8758 6.89058 25.8758 7.00169Z" fill="#6200EA"/>
<path d="M25.8758 8.64747V11.8002L25.4939 12.5363L24.7647 13.96L24.3758 14.71L24.0216 15.3975L23.8689 15.6961C23.8689 15.9113 23.8689 16.1197 23.855 16.3211C23.855 16.6197 23.8411 16.9044 23.8202 17.1683C23.7925 17.4808 23.7508 17.7655 23.7091 18.0294C23.605 18.578 23.4591 19.0502 23.2508 19.4391C23.223 19.4877 23.1952 19.5363 23.1675 19.578C23.0911 19.703 23.0008 19.8211 22.9036 19.9322C22.7786 20.0849 22.6397 20.2169 22.48 20.328C22.2439 20.5086 21.9661 20.6544 21.6466 20.7655C21.2508 20.9113 20.7925 21.0086 20.2508 21.0641C19.8966 21.0988 19.5078 21.1197 19.0841 21.1197L18.7925 21.1335L17.348 21.2169H17.3411L15.8064 21.3072L14.2439 21.3974L12.0911 21.5224L9.47306 21.6752L9.09111 21.696C8.73695 21.696 8.40362 21.6752 8.08417 21.6335C8.04945 21.6266 8.02167 21.6197 7.98695 21.6197C7.51473 21.5433 7.08417 21.4183 6.69529 21.2447C6.22306 21.0363 5.81334 20.7586 5.46612 20.4252C5.16057 20.1266 4.89668 19.7863 4.6814 19.4044C4.63279 19.3141 4.58418 19.2308 4.54251 19.1336C4.33418 18.7238 4.16751 18.2655 4.04251 17.7655C4.02168 17.6822 4.00085 17.5919 3.98696 17.5016C3.94529 17.3419 3.91057 17.1752 3.88974 17.0016C3.81335 16.5572 3.77168 16.085 3.75085 15.5919V15.585C3.7439 15.3836 3.73696 15.1891 3.73696 14.9808L3.39668 14.1683L3.34807 14.0433L3.3064 13.9391L2.78557 12.6961L2.70224 12.4947L2.20224 11.2933L1.64669 9.95302C1.64669 9.95302 1.64669 9.95302 1.63974 9.95302L1.07724 8.59886L0.875854 8.1058V7.00164C0.875854 6.56414 0.917521 6.13358 0.99391 5.71692C1.02863 5.5572 1.06335 5.39748 1.10502 5.2447C1.6953 4.90442 2.31335 4.59192 2.94529 4.31414C4.38974 3.66831 5.93834 3.18915 7.54251 2.89748C8.73695 2.6822 9.98 2.56415 11.2369 2.56415C16.3133 2.56415 20.9175 4.40442 24.5147 7.40442C24.6536 7.51553 24.7855 7.62664 24.9175 7.74469C25.2439 8.02941 25.5633 8.32802 25.8758 8.64747Z" fill="#673AB7"/>
<path d="M25.8758 10.717V14.2864L25.48 15.1128L24.73 16.6753L24.723 16.6961C24.723 16.9947 24.7091 17.2656 24.6883 17.5086C24.6189 18.3072 24.4244 18.8142 24.105 19.1267C23.8758 19.3628 23.5911 19.4947 23.2369 19.5642C23.2161 19.5711 23.1883 19.5711 23.1675 19.5781C23.0564 19.5989 22.9383 19.6128 22.8133 19.6128C22.3828 19.6544 21.8758 19.6267 21.2925 19.585C21.23 19.585 21.1605 19.578 21.0911 19.5711C20.6675 19.5433 20.2161 19.5156 19.7161 19.4947C19.4453 19.4878 19.1605 19.4808 18.8689 19.4808H18.855L18.1536 19.5364H18.1467L16.5703 19.6475L14.7717 19.7864L14.5078 19.8072L12.4036 19.96L11.3133 20.0433L10.2369 20.1197C10.0494 20.1197 9.86889 20.1197 9.68834 20.1128C9.68834 20.1128 9.68139 20.1058 9.68139 20.1128C8.89667 20.0989 8.19528 20.0503 7.57028 19.9322C6.9939 19.835 6.48695 19.6822 6.0564 19.4531C5.61196 19.2378 5.2439 18.9322 4.94529 18.5433C4.66057 18.1614 4.45224 17.6822 4.32029 17.1058C4.32029 17.0989 4.32029 17.0989 4.32029 17.0989C4.22307 16.6336 4.16751 16.0919 4.16751 15.4808L4.06335 15.2933L3.44529 14.1892L3.35502 14.0364L3.3064 13.9392L2.66057 12.7933L2.34113 12.217L1.93835 11.5017L1.24391 10.2586L0.875854 9.60585V7.0503C1.48696 6.64752 2.11891 6.29336 2.77168 5.97391C3.56335 5.57114 4.38279 5.23086 5.23696 4.95308C6.16751 4.64753 7.13973 4.40447 8.13278 4.24475C9.13973 4.07808 10.1744 3.99475 11.2369 3.99475C15.9592 3.99475 20.2925 5.68225 23.6327 8.4878C23.7855 8.60585 23.9314 8.7378 24.0772 8.8628C24.6605 9.38363 25.2161 9.94613 25.723 10.5364C25.7786 10.5989 25.8341 10.6545 25.8758 10.717Z" fill="#8E24AA"/>
<path d="M25.8758 13.0503V18.0711C25.7091 17.9739 25.48 17.8558 25.1952 17.7308C25.0425 17.6544 24.8689 17.578 24.6883 17.5086C24.4244 17.3905 24.1397 17.2794 23.8202 17.1683C23.7508 17.1405 23.6814 17.1197 23.605 17.0989C23.48 17.0503 23.348 17.0086 23.2161 16.9669C22.8064 16.8419 22.355 16.7239 21.8828 16.6197C21.7022 16.585 21.5147 16.5503 21.3272 16.5225C20.723 16.4183 20.0772 16.3558 19.4036 16.3489C19.348 16.3419 19.2855 16.3419 19.23 16.3419L17.4453 16.3558L15.0147 16.3697H15.0078L9.80639 16.4114C8.15362 16.4114 7.13973 16.8072 6.52862 16.9669C6.52862 16.9669 6.52168 16.9669 6.52168 16.9739C5.87584 17.1405 5.67446 17.0364 5.6189 15.9044C5.60501 15.5919 5.59807 15.1891 5.59807 14.6961L5.20918 14.3975L4.52862 13.8836L4.11196 13.5641L4.02863 13.5016L2.87585 12.6267L2.70224 12.4947L2.34113 12.2169L1.67446 11.7169L0.875854 11.1058V8.74472C0.945299 8.68916 1.0078 8.64055 1.07724 8.59888C2.08419 7.90444 3.16057 7.31416 4.29946 6.835C5.31334 6.40444 6.38279 6.06417 7.48001 5.82111C7.77862 5.75861 8.08417 5.69611 8.39667 5.65445C9.32028 5.49472 10.2717 5.41833 11.2369 5.41833C15.4105 5.41833 19.2439 6.86972 22.2855 9.27249C22.7439 9.6336 23.1883 10.0155 23.605 10.4253C24.1744 10.9669 24.7091 11.5433 25.2022 12.1544C25.2994 12.2794 25.3966 12.4044 25.4939 12.5364C25.6258 12.703 25.7508 12.8767 25.8758 13.0503Z" fill="#C2185B"/>
<path d="M25.8758 15.835V18.1128C25.8758 18.5642 25.8341 19.0086 25.7508 19.4392C25.6258 20.078 25.4105 20.6892 25.1189 21.2586C24.9661 21.2933 24.7925 21.2933 24.598 21.2655C24.1605 21.1892 23.6466 20.96 23.0911 20.6614C23.0633 20.6544 23.0355 20.6405 23.0147 20.6267C22.8411 20.5364 22.6605 20.4392 22.48 20.328C22.1119 20.1267 21.723 19.9044 21.3341 19.6961C21.2508 19.6544 21.1675 19.6128 21.0911 19.5711C20.6466 19.3419 20.1883 19.1336 19.73 18.9739C19.73 18.9739 19.73 18.9739 19.723 18.9739C19.6258 18.9392 19.5216 18.9044 19.4175 18.8767C19.0216 18.7655 18.6189 18.6961 18.23 18.6961L17.4661 18.4739L14.0842 17.4947C14.0842 17.4947 14.0842 17.4947 14.0772 17.4947L12.0008 16.8906H11.9939L11.0911 16.6267C8.48 16.6267 6.87584 17.7378 6.09807 17.3142C5.79251 17.1544 5.61196 16.7517 5.54946 15.96C5.52862 15.7378 5.52168 15.4878 5.52168 15.1961L4.70918 14.8003L4.67446 14.7864H4.66751L4.08418 14.4947L3.44529 14.1892L3.39668 14.1683L3.27863 14.1058L1.91752 13.4461L0.875854 12.9392V10.5572C0.99391 10.4531 1.11891 10.3558 1.24391 10.2586C1.37585 10.1545 1.5078 10.0572 1.63974 9.95307C1.64669 9.95307 1.64669 9.95307 1.64669 9.95307C2.46613 9.36279 3.33418 8.84196 4.25779 8.4114C5.33418 7.89752 6.48001 7.50168 7.66751 7.24474C7.84112 7.20307 8.02167 7.16141 8.20223 7.13363C9.18834 6.94613 10.2022 6.84891 11.2369 6.84891C14.8967 6.84891 18.2578 8.03641 20.9661 10.0364C21.7508 10.6197 22.48 11.2656 23.1466 11.967C23.6952 12.5433 24.2022 13.1683 24.6605 13.8211C24.6952 13.8697 24.73 13.9183 24.7647 13.96C25.0216 14.335 25.2577 14.7169 25.48 15.1128C25.6258 15.3489 25.7508 15.5919 25.8758 15.835Z" fill="#D81B60"/>
<path d="M25.7508 19.4391C25.6258 20.078 25.4105 20.6891 25.1189 21.2586C24.9869 21.5155 24.8411 21.7586 24.6814 21.9947C24.5841 22.1405 24.48 22.2794 24.3758 22.4113C24.1258 22.3141 23.7577 22.1752 23.3064 22.0225C23.3064 22.0225 23.3064 22.0225 23.3064 22.0155C22.9661 21.8975 22.5772 21.7725 22.1605 21.6544C22.0425 21.6197 21.9244 21.585 21.7994 21.5502C21.3064 21.4183 20.7925 21.3002 20.2925 21.2308C19.8758 21.1614 19.4661 21.1197 19.0841 21.1197L18.7647 21.0294H18.7578L17.0772 20.5433L16.0425 20.2447L14.8897 19.9114H14.8828L14.5078 19.8072L9.97306 18.5016L8.6675 18.1266L7.69528 17.8975L6.11195 17.5225L5.91751 17.4739C5.91751 17.4739 5.91751 17.4739 5.91057 17.4739L4.32029 17.1058C4.32029 17.0989 4.32029 17.0989 4.32029 17.0989L4.03557 17.0364L3.88974 17.0016L2.73002 16.7308L2.59807 16.6961L1.61196 15.8836L0.875854 15.2655V12.4322C1.1328 12.1822 1.39669 11.9461 1.67446 11.7169C1.7578 11.6405 1.84807 11.5711 1.93835 11.5017C2.02169 11.4322 2.11196 11.3628 2.20224 11.2933C2.83418 10.8142 3.50085 10.3836 4.20918 10.0155C5.11196 9.52943 6.07029 9.14055 7.07723 8.86277C7.27167 8.80027 7.46612 8.74471 7.66751 8.70305C8.80639 8.41833 10.0008 8.27249 11.2369 8.27249C14.3411 8.27249 17.23 9.20999 19.6189 10.8142C20.8064 11.6128 21.8758 12.5711 22.7786 13.6614C23.2369 14.21 23.6536 14.7864 24.0216 15.3975C24.0564 15.4461 24.0841 15.4878 24.1119 15.5364C24.3341 15.9044 24.5425 16.2864 24.73 16.6753C24.9036 17.0225 25.0564 17.3697 25.1952 17.7308C25.4175 18.2864 25.598 18.8558 25.7508 19.4391Z" fill="#F50057"/>
<path d="M24.6814 21.9947C24.5841 22.1405 24.48 22.2794 24.3758 22.4114C24.0702 22.7933 23.7369 23.1405 23.3619 23.4461C23.0355 23.7169 22.6883 23.96 22.3203 24.1683C22.1814 24.1336 22.0425 24.0919 21.8966 24.0364C21.4383 23.8766 20.9591 23.6128 20.5147 23.335C19.848 22.9114 19.2716 22.453 19.0147 22.2447C18.9175 22.1614 18.8689 22.1197 18.8689 22.1197L17.6883 22.0155L17.5425 22.0016L16.0147 21.8697L14.4314 21.7308L12.0911 21.5225L8.38278 21.1961L8.36889 21.1891L7.06334 20.5572L5.7439 19.9183L4.6814 19.4044L4.45224 19.2933L4.16751 19.1544L3.1814 18.6753L1.86891 18.0433L1.45919 17.8419L0.875854 17.6614V14.5572C1.20224 14.1683 1.54946 13.8003 1.91752 13.4461C2.15363 13.2239 2.40363 13.0017 2.66057 12.7933C2.70224 12.7586 2.74391 12.7239 2.78557 12.6961C2.81335 12.6614 2.84807 12.6406 2.87585 12.6267C3.28557 12.2933 3.71613 11.9947 4.16057 11.7239C4.67446 11.3975 5.21612 11.1058 5.77862 10.8628C6.38279 10.592 7.01473 10.3628 7.66751 10.1892C8.79945 9.86973 10.0008 9.70306 11.2369 9.70306C14.0703 9.70306 16.6883 10.5642 18.848 12.0433C20.23 12.9878 21.4244 14.1822 22.3689 15.5642C22.6814 16.0086 22.9591 16.4808 23.2161 16.9669C23.3064 17.1475 23.3966 17.328 23.473 17.5086C23.5564 17.6822 23.6327 17.8558 23.7091 18.0294C23.855 18.3905 23.9869 18.7517 24.105 19.1267C24.3272 19.8211 24.4939 20.5294 24.598 21.2655C24.6327 21.5086 24.6605 21.7516 24.6814 21.9947Z" fill="#FF1744"/>
<path d="M23.3689 23.2655C23.3689 23.3211 23.3689 23.3836 23.3619 23.4461C23.0355 23.7169 22.6883 23.96 22.3203 24.1683C22.1675 24.2516 22.0147 24.335 21.855 24.4044C21.6953 24.4808 21.5355 24.5502 21.3689 24.6127C21.1328 24.4877 20.8133 24.335 20.473 24.1891C19.9939 23.9738 19.473 23.7794 19.0703 23.7169C18.973 23.6961 18.8828 23.6891 18.7994 23.6891L17.6605 23.5433H17.6467L16.23 23.3558L14.7994 23.1683L14.1328 23.085L8.88278 22.4044C8.5425 22.4044 8.18139 22.3836 7.80639 22.335C7.34806 22.2933 6.8689 22.2238 6.38973 22.1266C5.91751 22.0433 5.43834 21.9322 4.98001 21.8141C4.50085 21.703 4.02863 21.5711 3.59113 21.4461C3.08418 21.2933 2.61196 21.1475 2.21613 21.0155C1.88974 20.9113 1.61196 20.8141 1.39669 20.7377C1.27169 20.4391 1.16752 20.1266 1.09113 19.8072C0.945299 19.2655 0.875854 18.6961 0.875854 18.1127V16.953C1.09808 16.585 1.34113 16.2239 1.61196 15.8836C2.10502 15.2308 2.66752 14.6336 3.27863 14.1058C3.29946 14.078 3.32724 14.0572 3.34807 14.0433L3.35502 14.0364C3.57029 13.8419 3.79251 13.6683 4.02863 13.5016C4.0564 13.4739 4.08418 13.453 4.11196 13.4322C4.22307 13.3489 4.34112 13.2655 4.46612 13.1891C5.45918 12.5155 6.5564 11.9878 7.73001 11.6336C8.84111 11.3003 10.0147 11.1266 11.2369 11.1266C13.6605 11.1266 15.9244 11.8419 17.8133 13.0641C19.2091 13.96 20.4105 15.1405 21.3272 16.5225C21.4383 16.6822 21.5425 16.8419 21.6466 17.0086C22.1258 17.8211 22.5216 18.6961 22.8133 19.6127C22.848 19.7169 22.8758 19.8211 22.9036 19.9322C22.9591 20.1197 23.0077 20.3141 23.0494 20.5086C23.0633 20.5572 23.0772 20.6058 23.0911 20.6613C23.1883 21.0988 23.2577 21.5572 23.3064 22.0155C23.3064 22.0225 23.3064 22.0225 23.3064 22.0225C23.348 22.4322 23.3689 22.8488 23.3689 23.2655Z" fill="#FF5722"/>
<path d="M21.9384 23.2655C21.9384 23.5086 21.9245 23.7725 21.8967 24.0364C21.8828 24.1614 21.8689 24.2864 21.855 24.4044C21.6953 24.4808 21.5356 24.5503 21.3689 24.6128C21.0564 24.7308 20.737 24.828 20.4106 24.8975C20.1884 24.9461 19.9592 24.9877 19.73 25.0086H19.7231C19.5078 24.8766 19.2578 24.7169 19.0009 24.5364C18.5356 24.21 18.0495 23.8419 17.6606 23.5433C17.6537 23.5364 17.6537 23.5364 17.6467 23.5294C17.237 23.2169 16.9453 22.9808 16.9453 22.9808L16.2092 23.0086L14.7925 23.0572L14.1328 23.085L11.4801 23.1822L9.237 23.2655C9.09117 23.2725 8.91756 23.2725 8.70228 23.2655H8.69534C8.40367 23.2586 8.05645 23.2378 7.67451 23.203C7.23006 23.1683 6.74395 23.1266 6.2509 23.078C5.77173 23.0225 5.28562 22.9669 4.82035 22.9114C4.30646 22.8558 3.82035 22.7933 3.40368 22.7378C3.07729 22.6961 2.79257 22.6614 2.56341 22.6336C2.36896 22.4114 2.19535 22.1822 2.02868 21.9322C1.77868 21.5572 1.56341 21.1614 1.39674 20.7378C1.27174 20.4391 1.16758 20.1266 1.09119 19.8072C1.29257 19.1891 1.55646 18.6058 1.86896 18.0433C2.11896 17.585 2.41063 17.1475 2.73007 16.7308C3.04257 16.3211 3.38285 15.9392 3.7509 15.5919V15.585C3.85507 15.4808 3.95924 15.3836 4.0634 15.2933C4.25785 15.1128 4.45923 14.9461 4.66757 14.7864H4.67451C4.68146 14.7725 4.6884 14.7725 4.69535 14.7655C4.86201 14.6336 5.03562 14.5155 5.20923 14.3975C6.23701 13.6961 7.39673 13.1753 8.64673 12.8697C9.47311 12.6683 10.3412 12.5572 11.237 12.5572C13.0009 12.5572 14.6675 12.9808 16.1328 13.7447H16.1398C17.3967 14.3905 18.5078 15.2794 19.4036 16.3489C19.8967 16.9183 20.3203 17.5433 20.6675 18.203C20.9106 18.6475 21.1189 19.1128 21.2925 19.585C21.3064 19.6266 21.3203 19.6614 21.3342 19.6961C21.4523 20.0433 21.5564 20.4044 21.6467 20.7655C21.7092 21.0225 21.7578 21.2864 21.7995 21.5503C21.8134 21.6336 21.8273 21.71 21.8342 21.7933C21.9036 22.2725 21.9384 22.7655 21.9384 23.2655Z" fill="#FF6F00"/>
<path d="M20.5148 23.2655V23.335C20.5148 23.5711 20.4939 23.8697 20.4731 24.1892C20.4523 24.4253 20.4314 24.6683 20.4106 24.8975C20.1884 24.9461 19.9592 24.9878 19.73 25.0086H19.7231C19.4592 25.0433 19.2023 25.0572 18.9314 25.0572H17.7162L17.4523 24.9808L16.0842 24.5642L14.6953 24.1475L11.4801 23.1822L10.0912 22.7656C10.0912 22.7656 9.51478 22.9947 8.70228 23.2655H8.69534C8.38284 23.3697 8.04256 23.4808 7.68145 23.5919C7.23006 23.7239 6.7509 23.8558 6.27868 23.96C5.79257 24.0711 5.3134 24.1544 4.88285 24.1892C4.7509 24.203 4.61896 24.21 4.5009 24.21C4.11202 23.9947 3.73702 23.7378 3.39674 23.453C3.09813 23.203 2.82035 22.9322 2.56341 22.6336C2.36896 22.4114 2.19535 22.1822 2.02869 21.9322C2.0773 21.6197 2.13285 21.3142 2.21619 21.0156C2.42452 20.1892 2.75091 19.3975 3.18146 18.6753C3.41757 18.2656 3.68146 17.8697 3.98702 17.5017C3.99396 17.4808 4.01479 17.46 4.03563 17.4461C4.02868 17.4392 4.03563 17.4392 4.03563 17.4392C4.1259 17.3211 4.22313 17.21 4.32035 17.1058C4.32035 17.0989 4.32035 17.0989 4.32035 17.0989C4.60507 16.7933 4.89674 16.5017 5.21618 16.2308C5.32729 16.1406 5.43146 16.0503 5.54951 15.96C5.57034 15.9392 5.59118 15.9253 5.61896 15.9045C7.18145 14.71 9.13284 13.9878 11.237 13.9878C13.6259 13.9878 15.7995 14.8836 17.4453 16.3558C18.237 17.0711 18.9106 17.9253 19.4175 18.8767C19.4592 18.9461 19.5009 19.0225 19.5356 19.0989C19.5981 19.2239 19.6606 19.3558 19.7161 19.4947C19.9453 19.9947 20.1259 20.5225 20.2509 21.0642C20.2648 21.1197 20.2786 21.1753 20.2925 21.2308C20.3481 21.4878 20.3967 21.7517 20.4314 22.0156C20.487 22.4253 20.5148 22.8419 20.5148 23.2655Z" fill="#FF9800"/>
<path d="M19.0842 23.2655C19.0842 23.4044 19.0772 23.5572 19.0703 23.7169C19.0564 23.9739 19.0356 24.2516 19.0008 24.5364C18.9869 24.71 18.9592 24.8836 18.9314 25.0572H15.1258L14.3897 24.9391L11.5147 24.4808L11.105 24.4183L10.1675 24.2655C9.7578 24.2655 8.86891 24.4461 7.93141 24.6197C7.43836 24.71 6.93836 24.8072 6.48697 24.8697C6.43142 24.8766 6.37586 24.8836 6.32725 24.8905H6.32031C5.8342 24.7864 5.36197 24.6266 4.91753 24.4183C4.77864 24.3558 4.63975 24.2864 4.50087 24.21C4.11198 23.9947 3.73698 23.7377 3.3967 23.453C3.38976 23.3697 3.38281 23.3002 3.38281 23.2655C3.38281 23.085 3.38976 22.9114 3.40365 22.7377C3.43142 22.2933 3.49392 21.8628 3.59115 21.4461C3.74392 20.8141 3.96614 20.203 4.26476 19.6405C4.32031 19.5225 4.38281 19.4044 4.45225 19.2933C4.48003 19.2378 4.51475 19.1891 4.54253 19.1336C4.66753 18.9322 4.80642 18.7378 4.94531 18.5433C5.23697 18.1614 5.56336 17.8003 5.91058 17.4739C5.91753 17.4739 5.91753 17.4739 5.91753 17.4739C5.94531 17.4461 5.97308 17.4183 6.00086 17.3975C6.03558 17.3697 6.06336 17.335 6.09808 17.3142C6.23697 17.1892 6.37586 17.078 6.52169 16.9739C6.52169 16.9669 6.52864 16.9669 6.52864 16.9669C7.84114 15.9878 9.46613 15.4114 11.237 15.4114C12.612 15.4114 13.8897 15.7586 15.0078 16.3697H15.0147C15.9731 16.8975 16.8064 17.6128 17.4661 18.4739C17.7231 18.8072 17.9522 19.1614 18.1467 19.5364H18.1536C18.1883 19.6058 18.2231 19.6753 18.2578 19.7447C18.4661 20.1544 18.6328 20.585 18.7578 21.0294H18.7647C18.7717 21.0641 18.7856 21.0989 18.7925 21.1336C18.8758 21.4322 18.9453 21.7377 18.9939 22.0502C19.0008 22.1127 19.0078 22.1822 19.0147 22.2447C19.0633 22.578 19.0842 22.9183 19.0842 23.2655Z" fill="#FFC107"/>
<path d="M17.6605 23.1892C17.6605 23.3003 17.6605 23.4183 17.6467 23.5294V23.5364C17.6467 23.5433 17.6467 23.5433 17.6467 23.5433C17.6328 24.0433 17.5633 24.5364 17.4522 24.9808C17.4522 25.0086 17.4453 25.0294 17.4314 25.0572H14.1883L11.5147 24.4808L11.1606 24.4044L11.105 24.4183L8.13974 25.0294L8.00779 25.0572H7.82029C7.37585 25.0572 6.93835 25.0155 6.51474 24.9322C6.45224 24.9183 6.38974 24.9044 6.32724 24.8905H6.3203C5.83419 24.7864 5.36196 24.6267 4.91752 24.4183C4.90363 24.3419 4.88974 24.2655 4.8828 24.1892C4.83419 23.8905 4.81335 23.578 4.81335 23.2655C4.81335 23.1475 4.81335 23.0294 4.8203 22.9114C4.84113 22.5364 4.89669 22.1683 4.98002 21.8142C5.03558 21.5503 5.11196 21.2933 5.20224 21.0503C5.27863 20.835 5.36891 20.6267 5.46613 20.4253C5.54946 20.2517 5.64669 20.085 5.74391 19.9183C5.84113 19.7586 5.9453 19.6058 6.05641 19.4531C6.33418 19.0711 6.66057 18.7169 7.02168 18.4044C7.23002 18.2239 7.45918 18.0503 7.69529 17.8975C8.70918 17.2308 9.92445 16.8419 11.237 16.8419C11.4939 16.8419 11.7439 16.8558 11.9869 16.8906H12.0008C12.7439 16.9739 13.4383 17.1822 14.0772 17.4947C14.0842 17.4947 14.0842 17.4947 14.0842 17.4947C15.0911 17.9878 15.9453 18.7308 16.5703 19.6475C16.6744 19.8003 16.7786 19.9669 16.8689 20.1336C16.9453 20.2656 17.0147 20.4044 17.0772 20.5433C17.1744 20.7586 17.2647 20.9878 17.3411 21.2169H17.348C17.4244 21.4739 17.4939 21.7308 17.5425 22.0017V22.0086C17.6189 22.3905 17.6605 22.7864 17.6605 23.1892Z" fill="#FFD54F"/>
<path d="M16.2301 23.335V23.3558C16.2301 23.7655 16.1815 24.1683 16.0843 24.5641C16.0495 24.7308 16.0009 24.8974 15.9384 25.0572H12.8273L11.237 24.6197L9.64677 25.0572H7.82039C7.37595 25.0572 6.93845 25.0155 6.51484 24.9322C6.50095 24.9113 6.494 24.8905 6.48706 24.8697C6.38984 24.5711 6.31345 24.2724 6.27873 23.9599C6.25095 23.7586 6.23706 23.5502 6.23706 23.335C6.23706 23.2516 6.23706 23.1613 6.25095 23.078C6.25789 22.7516 6.3065 22.4322 6.38984 22.1266C6.4315 21.9183 6.494 21.7169 6.57734 21.5225C6.60512 21.4252 6.64678 21.335 6.69539 21.2447C6.79956 21.0086 6.92456 20.7794 7.06345 20.5572C7.21622 20.335 7.38289 20.1266 7.57039 19.9322C7.79261 19.6822 8.04261 19.453 8.32733 19.2655C8.81344 18.9113 9.369 18.6475 9.97316 18.5016C10.3759 18.3905 10.7996 18.335 11.237 18.335C12.6259 18.335 13.869 18.8905 14.7718 19.7863C14.8065 19.8211 14.8482 19.8627 14.8829 19.9113H14.8898C14.987 20.0155 15.0773 20.1197 15.1676 20.2377C15.4245 20.5641 15.6398 20.9183 15.8065 21.3072C15.8898 21.4877 15.9593 21.6752 16.0148 21.8697C16.0218 21.8975 16.0287 21.9183 16.0356 21.9461C16.1329 22.2863 16.1954 22.6405 16.2093 23.0086C16.2231 23.1127 16.2301 23.2238 16.2301 23.335Z" fill="#FFE082"/>
<path d="M14.8064 23.335C14.8064 23.6197 14.7716 23.8905 14.6952 24.1475C14.6258 24.4252 14.5216 24.6891 14.3897 24.9391C14.3689 24.9808 14.3202 25.0572 14.3202 25.0572H8.15359C8.14665 25.0502 8.1397 25.0364 8.1397 25.0294C8.05637 24.8975 7.98692 24.7655 7.93137 24.6197C7.79248 24.3002 7.70915 23.953 7.68137 23.5919C7.66748 23.5086 7.66748 23.4183 7.66748 23.335C7.66748 23.2933 7.66748 23.2447 7.67443 23.203C7.68137 22.8975 7.72304 22.6058 7.80637 22.335C7.87581 22.085 7.96609 21.8558 8.08415 21.6336C8.08415 21.6336 8.09109 21.6266 8.09109 21.6197C8.17442 21.4739 8.2647 21.328 8.36887 21.1891C8.70915 20.7308 9.16053 20.3558 9.68137 20.1128C9.68831 20.1128 9.68831 20.1128 9.68831 20.1128C9.85498 20.0294 10.0286 19.96 10.2091 19.9114C10.2091 19.9114 10.2091 19.9114 10.2161 19.9114C10.5355 19.8141 10.8828 19.7655 11.2369 19.7655C11.6466 19.7655 12.0425 19.828 12.4036 19.96C12.5355 19.9947 12.6605 20.0503 12.7855 20.1128C12.7855 20.1128 12.7855 20.1128 12.7925 20.1128C13.3897 20.3975 13.8966 20.8419 14.2439 21.3975C14.3133 21.5016 14.3758 21.6128 14.4314 21.7308C14.4591 21.7794 14.4869 21.835 14.5077 21.8836C14.6675 22.2447 14.7647 22.6405 14.7925 23.0572C14.7994 23.0919 14.7994 23.1266 14.7994 23.1683C14.8064 23.2239 14.8064 23.2794 14.8064 23.335Z" fill="#FFECB3"/>
<path d="M17.5424 3.52948H9.20912C6.5008 3.52948 4.34802 5.68225 4.34802 8.39058V16.7239C4.34802 19.4322 6.5008 21.585 9.20912 21.585H17.5424C20.2508 21.585 22.4035 19.4322 22.4035 16.7239V8.39058C22.4035 5.68225 20.2508 3.52948 17.5424 3.52948Z" stroke="white" stroke-width="2" stroke-miterlimit="10" stroke-linecap="round" stroke-linejoin="round"/>
<path d="M18.2369 7.69614C18.6205 7.69614 18.9314 7.38522 18.9314 7.00169C18.9314 6.61816 18.6205 6.30725 18.2369 6.30725C17.8534 6.30725 17.5425 6.61816 17.5425 7.00169C17.5425 7.38522 17.8534 7.69614 18.2369 7.69614Z" fill="white"/>
<path d="M13.3759 16.7239C15.6771 16.7239 17.5425 14.8584 17.5425 12.5572C17.5425 10.256 15.6771 8.39056 13.3759 8.39056C11.0747 8.39056 9.20923 10.256 9.20923 12.5572C9.20923 14.8584 11.0747 16.7239 13.3759 16.7239Z" stroke="white" stroke-width="2" stroke-miterlimit="10" stroke-linecap="round" stroke-linejoin="round"/>
</g>
<defs>
<clipPath id="clip0_109_171">
<rect width="25" height="25" fill="white" transform="translate(0.875854 0.057251)"/>
</clipPath>
</defs>
</svg>
