<svg width="26" height="25" viewBox="0 0 26 25" fill="none" xmlns="http://www.w3.org/2000/svg">
<path d="M3.32019 2.83282L18.0661 1.93383L22.2512 5.35695L6.30067 6.63085L3.32019 2.83282Z" fill="white"/>
<path d="M6.4754 6.52885L22.6118 5.71752L22.6119 21.9441L6.47541 22.5752L6.4754 6.52885Z" fill="white"/>
<path d="M6.19194 5.195C6.89194 5.76334 7.15361 5.72 8.46861 5.63167L20.8569 4.88834C21.1203 4.88834 20.9019 4.62667 20.8136 4.58334L18.7553 3.095C18.3619 2.78834 17.8369 2.43834 16.8303 2.52667L4.83361 3.40167C4.39694 3.445 4.30861 3.66334 4.48361 3.83834L6.19194 5.195V5.195ZM6.93528 8.08167V21.1167C6.93528 21.8167 7.28528 22.08 8.07361 22.0367L21.6903 21.2483C22.4769 21.205 22.5653 20.7233 22.5653 20.155V7.20667C22.5653 6.64 22.3469 6.33167 21.8653 6.375L7.63528 7.20667C7.11028 7.25 6.93528 7.51334 6.93528 8.08167V8.08167ZM20.3769 8.78167C20.4636 9.175 20.3769 9.56834 19.9819 9.61334L19.3253 9.74334V19.3667C18.7569 19.6733 18.2303 19.85 17.7919 19.85C17.0919 19.85 16.9169 19.63 16.3919 18.9733L12.1003 12.2367V18.755L13.4586 19.0617C13.4586 19.0617 13.4586 19.8483 12.3636 19.8483L9.34361 20.0233C9.25528 19.8483 9.34361 19.4117 9.65028 19.3233L10.4369 19.1067V10.4867L9.34528 10.4C9.25694 10.0067 9.47528 9.43834 10.0886 9.39334L13.3286 9.17667L17.7953 16V9.96334L16.6569 9.83167C16.5686 9.35 16.9186 9 17.3569 8.95667L20.3786 8.78167H20.3769ZM3.82694 2.22L16.3053 1.30167C17.8369 1.16834 18.2303 1.25834 19.1936 1.95834L23.1769 4.75834C23.8353 5.23834 24.0536 5.37 24.0536 5.895V21.2483C24.0536 22.2117 23.7036 22.7817 22.4769 22.8667L7.98694 23.7417C7.06694 23.7867 6.62861 23.655 6.14694 23.0417L3.21361 19.2367C2.68861 18.5367 2.47028 18.0117 2.47028 17.3983V3.75C2.47028 2.96334 2.82028 2.30667 3.82694 2.22V2.22Z" fill="black"/>
</svg>
