<svg width="12" height="12" viewBox="0 0 25 25" fill="none" xmlns="http://www.w3.org/2000/svg">
<path d="M23.3959 6.24999C22.5938 6.61457 21.7292 6.85416 20.8334 6.96874C21.75 6.41666 22.4584 5.54166 22.7917 4.48957C21.9271 5.01041 20.9688 5.37499 19.9584 5.58332C19.1354 4.68749 17.9792 4.16666 16.6667 4.16666C14.2188 4.16666 12.2188 6.16666 12.2188 8.63541C12.2188 8.98957 12.2604 9.33332 12.3334 9.65624C8.62502 9.46874 5.32294 7.68749 3.12502 4.98957C2.7396 5.64582 2.52085 6.41666 2.52085 7.22916C2.52085 8.78124 3.3021 10.1562 4.51044 10.9375C3.77085 10.9375 3.08335 10.7292 2.47919 10.4167V10.4479C2.47919 12.6146 4.02085 14.4271 6.06252 14.8333C5.40703 15.0127 4.71887 15.0377 4.0521 14.9062C4.33503 15.7942 4.88912 16.5712 5.6365 17.128C6.38387 17.6848 7.28694 17.9934 8.21877 18.0104C6.63922 19.2609 4.68127 19.9368 2.66669 19.9271C2.31252 19.9271 1.95835 19.9062 1.60419 19.8646C3.58335 21.1354 5.93752 21.875 8.45835 21.875C16.6667 21.875 21.1771 15.0625 21.1771 9.15624C21.1771 8.95832 21.1771 8.77082 21.1667 8.57291C22.0417 7.94791 22.7917 7.15624 23.3959 6.24999V6.24999Z" fill="#0CB9FB"/>
</svg>
