<svg width="26" height="26" viewBox="0 0 26 26" fill="none" xmlns="http://www.w3.org/2000/svg">
<path d="M2.97644 2.89001L17.7224 1.99102L21.9075 5.41414L5.95692 6.68804L2.97644 2.89001Z" fill="white"/>
<path d="M6.13165 6.58606L22.2681 5.77472L22.2681 22.0013L6.13166 22.6324L6.13165 6.58606Z" fill="white"/>
<path d="M5.84825 5.25219C6.54825 5.82053 6.80992 5.77719 8.12492 5.68886L20.5133 4.94553C20.7766 4.94553 20.5583 4.68386 20.4699 4.64053L18.4116 3.15219C18.0183 2.84553 17.4933 2.49553 16.4866 2.58386L4.48992 3.45886C4.05325 3.50219 3.96492 3.72053 4.13992 3.89553L5.84825 5.25219V5.25219ZM6.59159 8.13886V21.1739C6.59159 21.8739 6.94159 22.1372 7.72992 22.0939L21.3466 21.3055C22.1333 21.2622 22.2216 20.7805 22.2216 20.2122V7.26386C22.2216 6.69719 22.0033 6.38886 21.5216 6.43219L7.29159 7.26386C6.76659 7.30719 6.59159 7.57053 6.59159 8.13886V8.13886ZM20.0333 8.83886C20.1199 9.23219 20.0333 9.62553 19.6383 9.67053L18.9816 9.80053V19.4239C18.4133 19.7305 17.8866 19.9072 17.4483 19.9072C16.7483 19.9072 16.5733 19.6872 16.0483 19.0305L11.7566 12.2939V18.8122L13.1149 19.1189C13.1149 19.1189 13.1149 19.9055 12.0199 19.9055L8.99992 20.0805C8.91159 19.9055 8.99992 19.4689 9.30659 19.3805L10.0933 19.1639V10.5439L9.00159 10.4572C8.91325 10.0639 9.13159 9.49553 9.74492 9.45053L12.9849 9.23386L17.4516 16.0572V10.0205L16.3133 9.88886C16.2249 9.40719 16.5749 9.05719 17.0133 9.01386L20.0349 8.83886H20.0333ZM3.48325 2.27719L15.9616 1.35886C17.4933 1.22553 17.8866 1.31553 18.8499 2.01553L22.8333 4.81553C23.4916 5.29553 23.7099 5.42719 23.7099 5.95219V21.3055C23.7099 22.2689 23.3599 22.8389 22.1333 22.9239L7.64325 23.7989C6.72325 23.8439 6.28492 23.7122 5.80325 23.0989L2.86992 19.2939C2.34492 18.5939 2.12659 18.0689 2.12659 17.4555V3.80719C2.12659 3.02053 2.47659 2.36386 3.48325 2.27719V2.27719Z" fill="black"/>
</svg>
